<svg xmlns="http://www.w3.org/2000/svg" viewBox="0 24.389999389648438 39.54999923706055 24.490001678466797" data-asc="0.9052734375" width="39.54999923706055" height="24.490001678466797"><defs/><g><g fill="#ffffff"><g transform="translate(0, 0)"><path d="M39.55 38.11L37.62 38.11Q36.16 38.11 35.05 37.71Q33.94 37.30 32.79 36.43Q31.76 37.35 30.96 37.67Q29.81 38.11 27.61 38.11L24.61 38.11Q24.61 40.36 23.54 42.48Q22.14 45.24 19.29 46.85Q15.70 48.88 10.30 48.88Q5.42 48.88 2.83 47.17Q0 45.29 0 41.41Q0 39.31 0.51 37.16Q1.03 35.01 1.90 32.84Q2.44 31.52 3.76 28.78L4.74 29.22Q3.03 32.74 2.48 34.77Q1.93 36.79 1.93 38.48Q1.93 41.50 4.09 43.08Q6.25 44.65 10.25 44.65Q14.94 44.65 18.63 43.02Q23.22 40.99 23.22 37.35Q23.22 34.91 22.31 32.71Q21.61 30.98 20.31 29.39L22.34 24.39Q23.56 26.39 24.00 27.93Q24.61 30.10 24.61 33.86L27.61 33.86Q29.93 33.86 30.91 33.15Q31.76 32.54 31.76 31.27Q31.76 30.57 31.68 29.85Q31.59 29.13 31.42 28.27L32.40 26.81L32.79 29.17Q33.33 31.57 34.23 32.62Q35.23 33.79 37.06 33.79Q37.62 33.79 37.93 33.44Q38.23 33.08 38.23 32.54Q38.23 31.32 37.48 29.93Q36.91 28.91 35.99 27.88L37.62 25.22Q38.77 27.10 39.01 27.78Q39.55 29.32 39.55 32.25L39.55 38.11Z"/></g></g></g></svg>